# xmcd CD database file
# Copyright (C) 1993-2000  Ti Kan
#
# Track frame offsets:
#	900
#	25800
#	41175
#	56175
#	76350
#	95400
#	112650
#	135000
#	161475
#	178050
#	206775
#
# Disc length: 3070 seconds
#
# Revision: 1
# Processed by: cddbd v1.5.2PL0 Copyright (c) Steve Scherf et al.
# Submitted via: xmcd 2.6 PL0
#
DISCID=8b0bf20b
DTITLE=Pink - Funhouse
DYEAR=1900
DGENRE=
TTITLE0=Bad Influence
TTITLE1=Just Like A Pill
TTITLE2=Who Knew
TTITLE3=Don't Let Me Get Me
TTITLE4=U And Ur Hand
TTITLE5=So What
TTITLE6=I Don't Believe You
TTITLE7=Bohemian Rhapsody
TTITLE8=Funhouse
TTITLE9=Get The Party Started
TTITLE10=Glitter In The Air
EXTD=
EXTT0=
EXTT1=
EXTT2=
EXTT3=
EXTT4=
EXTT5=
EXTT6=
EXTT7=
EXTT8=
EXTT9=
EXTT10=
PLAYORDER=
